<?xml version="1.0" encoding="iso-8859-1"?>
<!-- Generator: Adobe Illustrator 18.0.0, SVG Export Plug-In . SVG Version: 6.00 Build 0)  -->
<!DOCTYPE svg PUBLIC "-//W3C//DTD SVG 1.1//EN" "http://www.w3.org/Graphics/SVG/1.1/DTD/svg11.dtd">
<svg version="1.1" id="Capa_1" xmlns="http://www.w3.org/2000/svg" xmlns:xlink="http://www.w3.org/1999/xlink" x="0px" y="0px"
	 viewBox="0 0 196.217 196.217" style="enable-background:new 0 0 196.217 196.217;" xml:space="preserve">
<path d="M188.717,9.728H118.74H77.48H7.5c-4.143,0-7.5,3.358-7.5,7.5v107.839v53.923c0,4.142,3.357,7.5,7.5,7.5h69.98h41.26h69.977
	c4.143,0,7.5-3.358,7.5-7.5v-53.923V17.228C196.217,13.086,192.859,9.728,188.717,9.728z M181.217,64.735v13.826
	c-19.98,3.211-35.796,19.026-39.007,39.005h-15.97v-17.109c15.354-6.169,24.671-17.071,24.674-29.311
	c-0.003-12.238-9.319-23.141-24.674-29.31V24.728h15.824C144.901,45.179,160.904,61.472,181.217,64.735z M181.217,93.851v23.716
	h-23.718C160.308,105.876,169.526,96.659,181.217,93.851z M126.24,58.507c6.021,3.579,9.673,8.163,9.674,12.639
	c-0.001,4.478-3.653,9.061-9.674,12.641V58.507z M126.24,132.566h54.977v11.961H126.24V132.566z M181.217,49.446
	c-12.023-2.889-21.438-12.553-23.949-24.718h23.949V49.446z M111.24,24.728v92.839H84.98V95.153c0-0.024,0-0.048,0-0.072V47.214
	c0-0.024,0-0.048,0-0.072V24.728H111.24z M54.152,24.728H69.98v17.108c-15.357,6.168-24.676,17.071-24.676,29.312
	c0,12.241,9.318,23.144,24.676,29.312v17.107H54.008C50.797,97.586,34.981,81.769,15,78.559V64.732
	C35.313,61.468,51.315,45.177,54.152,24.728z M69.98,83.79c-6.022-3.58-9.676-8.164-9.676-12.643c0-4.479,3.653-9.063,9.676-12.643
	V83.79z M15,93.848c11.691,2.809,20.909,12.027,23.718,23.718H15V93.848z M15,132.566h54.98v11.961H15V132.566z M38.949,24.728
	C36.438,36.891,27.022,46.554,15,49.442V24.728H38.949z M15,159.528h54.98v11.962H15V159.528z M84.98,171.489v-38.923h26.26v38.923
	H84.98z M126.24,171.489v-11.962h54.977v11.962H126.24z"/>
<g>
</g>
<g>
</g>
<g>
</g>
<g>
</g>
<g>
</g>
<g>
</g>
<g>
</g>
<g>
</g>
<g>
</g>
<g>
</g>
<g>
</g>
<g>
</g>
<g>
</g>
<g>
</g>
<g>
</g>
</svg>
