<?xml version="1.0" encoding="iso-8859-1"?>
<!-- Generator: Adobe Illustrator 18.0.0, SVG Export Plug-In . SVG Version: 6.00 Build 0)  -->
<!DOCTYPE svg PUBLIC "-//W3C//DTD SVG 1.1//EN" "http://www.w3.org/Graphics/SVG/1.1/DTD/svg11.dtd">
<svg version="1.1" id="Capa_1" xmlns="http://www.w3.org/2000/svg" xmlns:xlink="http://www.w3.org/1999/xlink" x="0px" y="0px"
	 viewBox="0 0 214.535 214.535" style="enable-background:new 0 0 214.535 214.535;" xml:space="preserve">
<g>
	<path d="M107.135,80.071c22.073,0,40.031-17.958,40.031-40.031c0-22.078-17.958-40.04-40.031-40.04
		C85.061,0,67.103,17.962,67.103,40.04C67.103,62.113,85.061,80.071,107.135,80.071z M107.135,15
		c13.802,0,25.031,11.233,25.031,25.04c0,13.802-11.229,25.031-25.031,25.031c-13.803,0-25.033-11.229-25.033-25.031
		C82.103,26.233,93.332,15,107.135,15z"/>
	<path d="M123.772,81.349h-1.683H92.446h-1.683c-21.498,0-38.988,17.491-38.988,38.99v86.071c0,4.142,3.358,7.5,7.5,7.5
		s7.5-3.358,7.5-7.5v-86.071c0-11.222,7.746-20.666,18.17-23.273v16.076c0,3.995,3.126,7.251,7.064,7.478l-9.733,71.385
		c-0.357,2.616,0.689,5.227,2.751,6.874l17.557,14.018c1.369,1.092,3.024,1.639,4.68,1.639c1.655,0,3.311-0.546,4.679-1.638
		l17.562-14.018c2.064-1.647,3.109-4.259,2.752-6.875l-9.733-71.385c3.938-0.227,7.065-3.483,7.065-7.478V97.066
		c10.425,2.607,18.17,12.051,18.17,23.273v86.071c0,4.142,3.358,7.5,7.5,7.5s7.5-3.358,7.5-7.5v-86.071
		C162.76,98.839,145.27,81.349,123.772,81.349z M114.589,96.349v9.293h-0.653h-13.337h-0.653v-9.293H114.589z M107.266,197.438
		l-9.551-7.626l9.432-69.171h0.243l9.432,69.17L107.266,197.438z"/>
</g>
<g>
</g>
<g>
</g>
<g>
</g>
<g>
</g>
<g>
</g>
<g>
</g>
<g>
</g>
<g>
</g>
<g>
</g>
<g>
</g>
<g>
</g>
<g>
</g>
<g>
</g>
<g>
</g>
<g>
</g>
</svg>
