<?xml version="1.0" encoding="iso-8859-1"?>
<!-- Generator: Adobe Illustrator 18.0.0, SVG Export Plug-In . SVG Version: 6.00 Build 0)  -->
<!DOCTYPE svg PUBLIC "-//W3C//DTD SVG 1.1//EN" "http://www.w3.org/Graphics/SVG/1.1/DTD/svg11.dtd">
<svg version="1.1" id="Capa_1" xmlns="http://www.w3.org/2000/svg" xmlns:xlink="http://www.w3.org/1999/xlink" x="0px" y="0px"
	 viewBox="0 0 173.309 173.309" style="enable-background:new 0 0 173.309 173.309;" xml:space="preserve">
<path d="M165.809,22.424h-40.154L98.986,9.102c-1.041-0.52-2.188-0.791-3.351-0.791H16.684c-4.143,0-7.5,3.358-7.5,7.5v16.987H7.5
	c-1.989,0-3.898,0.791-5.304,2.197C0.79,36.402,0,38.311,0,40.3l0.014,73.475c0.001,4.142,3.358,7.499,7.5,7.499h57.784
	l-8.781,34.368c-0.573,2.244-0.077,4.628,1.343,6.457c1.421,1.829,3.607,2.9,5.924,2.9h34.795c3.427,0,6.417-2.322,7.266-5.642
	l9.735-38.06l50.232-0.023c4.142-0.002,7.497-3.359,7.497-7.5V29.924C173.309,25.782,169.951,22.424,165.809,22.424z
	 M158.309,106.276l-48.556,0.022c-3.426,0.001-6.414,2.323-7.263,5.642l-9.735,38.058H73.44l8.781-34.368
	c0.573-2.244,0.077-4.627-1.343-6.457c-1.421-1.83-3.607-2.9-5.924-2.9H15.013L15.011,96.8h34.558c4.142,0,7.5-3.358,7.5-7.5
	s-3.358-7.5-7.5-7.5H15.008l-0.002-9.503h34.563c4.142,0,7.5-3.358,7.5-7.5c0-4.142-3.358-7.5-7.5-7.5H15.003l-0.002-9.499h34.581
	c4.143,0,7.5-3.358,7.5-7.5c0-4.142-3.357-7.5-7.5-7.5H24.184v-9.487h69.682l26.668,13.322c1.041,0.52,2.188,0.791,3.352,0.791
	h34.424V106.276z"/>
<g>
</g>
<g>
</g>
<g>
</g>
<g>
</g>
<g>
</g>
<g>
</g>
<g>
</g>
<g>
</g>
<g>
</g>
<g>
</g>
<g>
</g>
<g>
</g>
<g>
</g>
<g>
</g>
<g>
</g>
</svg>
