<?xml version="1.0" encoding="iso-8859-1"?>
<!-- Generator: Adobe Illustrator 18.0.0, SVG Export Plug-In . SVG Version: 6.00 Build 0)  -->
<!DOCTYPE svg PUBLIC "-//W3C//DTD SVG 1.1//EN" "http://www.w3.org/Graphics/SVG/1.1/DTD/svg11.dtd">
<svg version="1.1" id="Capa_1" xmlns="http://www.w3.org/2000/svg" xmlns:xlink="http://www.w3.org/1999/xlink" x="0px" y="0px"
	 viewBox="0 0 191.554 191.554" style="enable-background:new 0 0 191.554 191.554;" xml:space="preserve">
<g>
	<path d="M177.824,12.459h-47.199V7.5c0-4.142-3.357-7.5-7.5-7.5c-4.143,0-7.5,3.358-7.5,7.5v4.959H75.928V7.5
		c0-4.142-3.358-7.5-7.5-7.5c-4.142,0-7.5,3.358-7.5,7.5v4.959H13.73c-4.142,0-7.5,3.358-7.5,7.5v164.095c0,4.142,3.358,7.5,7.5,7.5
		h164.094c4.143,0,7.5-3.358,7.5-7.5V19.959C185.324,15.817,181.967,12.459,177.824,12.459z M60.928,27.459v9.877
		c0,4.142,3.358,7.5,7.5,7.5c4.142,0,7.5-3.358,7.5-7.5v-9.877h39.697v9.877c0,4.142,3.357,7.5,7.5,7.5c4.143,0,7.5-3.358,7.5-7.5
		v-9.877h39.699v26.024H21.23V27.459H60.928z M21.23,176.554V68.483h149.094v108.07H21.23z"/>
	<path d="M129.207,107.833l-18.453-2.681l-8.252-16.72c-1.263-2.56-3.87-4.181-6.725-4.181c-2.854,0-5.462,1.621-6.726,4.181
		l-8.252,16.72l-18.453,2.681c-2.825,0.41-5.172,2.389-6.054,5.104c-0.882,2.715-0.146,5.696,1.898,7.688l13.352,13.015
		l-3.152,18.376c-0.482,2.814,0.674,5.658,2.983,7.336c2.31,1.678,5.371,1.899,7.898,0.571l16.504-8.676l16.504,8.676
		c1.098,0.577,2.296,0.861,3.489,0.861c0.008,0,0.017,0,0.024,0c4.141-0.002,7.496-3.359,7.496-7.5c0-0.629-0.077-1.24-0.223-1.824
		l-3.057-17.821l13.352-13.015c2.044-1.993,2.779-4.973,1.898-7.688C134.38,110.222,132.032,108.243,129.207,107.833z
		 M106.718,125.651c-1.768,1.723-2.574,4.206-2.156,6.638l1.249,7.286l-6.544-3.44c-1.093-0.574-2.291-0.861-3.49-0.861
		s-2.397,0.287-3.49,0.861l-6.544,3.44l1.25-7.286c0.417-2.433-0.389-4.915-2.157-6.638l-5.293-5.16l7.316-1.063
		c2.443-0.355,4.554-1.889,5.647-4.103l3.271-6.628l3.271,6.628c1.093,2.213,3.204,3.748,5.648,4.103l7.315,1.063L106.718,125.651z"
		/>
</g>
<g>
</g>
<g>
</g>
<g>
</g>
<g>
</g>
<g>
</g>
<g>
</g>
<g>
</g>
<g>
</g>
<g>
</g>
<g>
</g>
<g>
</g>
<g>
</g>
<g>
</g>
<g>
</g>
<g>
</g>
</svg>
