<?xml version="1.0" encoding="iso-8859-1"?>
<!-- Generator: Adobe Illustrator 18.0.0, SVG Export Plug-In . SVG Version: 6.00 Build 0)  -->
<!DOCTYPE svg PUBLIC "-//W3C//DTD SVG 1.1//EN" "http://www.w3.org/Graphics/SVG/1.1/DTD/svg11.dtd">
<svg version="1.1" id="Capa_1" xmlns="http://www.w3.org/2000/svg" xmlns:xlink="http://www.w3.org/1999/xlink" x="0px" y="0px"
	 viewBox="0 0 179.095 179.095" style="enable-background:new 0 0 179.095 179.095;" xml:space="preserve">
<g>
	<path d="M174.126,118.962c3.215-9.218,4.969-19.115,4.969-29.415s-1.754-20.197-4.969-29.415c-0.089-0.31-0.193-0.614-0.32-0.906
		C161.353,24.728,128.286,0,89.547,0S17.742,24.728,5.289,59.227c-0.126,0.293-0.23,0.596-0.319,0.906
		C1.754,69.35,0,79.247,0,89.547c0,10.285,1.748,20.168,4.954,29.374c0.094,0.336,0.207,0.662,0.345,0.977
		c12.461,34.483,45.521,59.196,84.248,59.196c38.738,0,71.806-24.728,84.258-59.226
		C173.932,119.576,174.037,119.272,174.126,118.962z M15,89.547c0-6.873,0.954-13.525,2.704-19.849H161.39
		c1.75,6.324,2.704,12.976,2.704,19.849c0,6.874-0.954,13.525-2.704,19.849H17.705C15.955,103.072,15,96.421,15,89.547z M89.547,15
		c28.521,0,53.342,16.108,65.872,39.698H23.675C36.206,31.108,61.026,15,89.547,15z M89.547,164.095
		c-28.522,0-53.342-16.108-65.872-39.698h131.744C142.889,147.986,118.069,164.095,89.547,164.095z"/>
	<path d="M130.571,82.047H48.524c-4.143,0-7.5,3.358-7.5,7.5c0,4.142,3.357,7.5,7.5,7.5h82.047c4.143,0,7.5-3.358,7.5-7.5
		C138.071,85.405,134.713,82.047,130.571,82.047z"/>
</g>
<g>
</g>
<g>
</g>
<g>
</g>
<g>
</g>
<g>
</g>
<g>
</g>
<g>
</g>
<g>
</g>
<g>
</g>
<g>
</g>
<g>
</g>
<g>
</g>
<g>
</g>
<g>
</g>
<g>
</g>
</svg>
