<?xml version="1.0" encoding="iso-8859-1"?>
<!-- Generator: Adobe Illustrator 18.0.0, SVG Export Plug-In . SVG Version: 6.00 Build 0)  -->
<!DOCTYPE svg PUBLIC "-//W3C//DTD SVG 1.1//EN" "http://www.w3.org/Graphics/SVG/1.1/DTD/svg11.dtd">
<svg version="1.1" id="Capa_1" xmlns="http://www.w3.org/2000/svg" xmlns:xlink="http://www.w3.org/1999/xlink" x="0px" y="0px"
	 viewBox="0 0 164.383 164.383" style="enable-background:new 0 0 164.383 164.383;" xml:space="preserve">
<path d="M154.031,49.483h-24.799c-0.065-0.002-0.128-0.01-0.193-0.01H64.843V28.406l15.605-15.602
	c2.929-2.928,2.93-7.677,0.001-10.606c-2.928-2.929-7.677-2.931-10.606-0.001L52.04,19.995c-1.407,1.406-2.197,3.315-2.197,5.304
	v24.174h-14.5c-0.066,0-0.129,0.008-0.193,0.01H10.352c-4.142,0-7.5,3.358-7.5,7.5s3.358,7.5,7.5,7.5h17.491v92.4
	c0,4.142,3.358,7.5,7.5,7.5h93.695c4.142,0,7.5-3.358,7.5-7.5v-92.4h17.492c4.142,0,7.5-3.358,7.5-7.5
	S158.173,49.483,154.031,49.483z M121.538,149.383H42.843v-84.9h78.695V149.383z"/>
<g>
</g>
<g>
</g>
<g>
</g>
<g>
</g>
<g>
</g>
<g>
</g>
<g>
</g>
<g>
</g>
<g>
</g>
<g>
</g>
<g>
</g>
<g>
</g>
<g>
</g>
<g>
</g>
<g>
</g>
</svg>
