<?xml version="1.0" encoding="iso-8859-1"?>
<!-- Generator: Adobe Illustrator 18.0.0, SVG Export Plug-In . SVG Version: 6.00 Build 0)  -->
<!DOCTYPE svg PUBLIC "-//W3C//DTD SVG 1.1//EN" "http://www.w3.org/Graphics/SVG/1.1/DTD/svg11.dtd">
<svg version="1.1" id="Capa_1" xmlns="http://www.w3.org/2000/svg" xmlns:xlink="http://www.w3.org/1999/xlink" x="0px" y="0px"
	 viewBox="0 0 213.275 213.275" style="enable-background:new 0 0 213.275 213.275;" xml:space="preserve">
<g>
	<path d="M183.743,0H29.532c-4.142,0-7.5,3.358-7.5,7.5v198.275c0,4.142,3.358,7.5,7.5,7.5h103.555c1.989,0,3.897-0.79,5.303-2.197
		l50.656-50.658c1.407-1.407,2.197-3.314,2.197-5.303V7.5C191.243,3.358,187.885,0,183.743,0z M37.032,15h139.211v132.615h-43.154
		c-4.142,0-7.5,3.358-7.5,7.5v43.16H37.032V15z M165.639,162.615l-25.05,25.051v-25.051H165.639z"/>
	<path d="M54.835,133.27h40.258V93.012H54.835V133.27z M67.335,105.512h15.258v15.259H67.335V105.512z"/>
	<path d="M54.835,189.124h40.258v-40.259H54.835V189.124z M67.335,161.365h15.258v15.259H67.335V161.365z"/>
	<path d="M54.835,77.417h40.258V37.159H54.835V77.417z M67.335,49.659h15.258v15.258H67.335V49.659z"/>
	<path d="M158.442,93.012h-40.258v40.259h40.258V93.012z M145.942,120.771h-15.258v-15.259h15.258V120.771z"/>
	<path d="M158.442,37.159h-40.258v40.258h40.258V37.159z M145.942,64.917h-15.258V49.659h15.258V64.917z"/>
</g>
<g>
</g>
<g>
</g>
<g>
</g>
<g>
</g>
<g>
</g>
<g>
</g>
<g>
</g>
<g>
</g>
<g>
</g>
<g>
</g>
<g>
</g>
<g>
</g>
<g>
</g>
<g>
</g>
<g>
</g>
</svg>
