<?xml version="1.0" encoding="iso-8859-1"?>
<!-- Generator: Adobe Illustrator 18.0.0, SVG Export Plug-In . SVG Version: 6.00 Build 0)  -->
<!DOCTYPE svg PUBLIC "-//W3C//DTD SVG 1.1//EN" "http://www.w3.org/Graphics/SVG/1.1/DTD/svg11.dtd">
<svg version="1.1" id="Capa_1" xmlns="http://www.w3.org/2000/svg" xmlns:xlink="http://www.w3.org/1999/xlink" x="0px" y="0px"
	 viewBox="0 0 171.299 171.299" style="enable-background:new 0 0 171.299 171.299;" xml:space="preserve">
<g>
	<path d="M124.725,39.074H46.575c-4.142,0-7.5,3.358-7.5,7.5s3.358,7.5,7.5,7.5h78.149c4.143,0,7.5-3.358,7.5-7.5
		S128.867,39.074,124.725,39.074z"/>
	<path d="M163.799,9.768H7.5c-4.142,0-7.5,3.358-7.5,7.5v58.613v78.15c0,4.142,3.358,7.5,7.5,7.5h156.299c4.143,0,7.5-3.358,7.5-7.5
		v-78.15V17.268C171.299,13.126,167.941,9.768,163.799,9.768z M15,24.768h141.299v43.613H15V24.768z M156.299,146.531H15v-63.15
		h141.299V146.531z"/>
</g>
<g>
</g>
<g>
</g>
<g>
</g>
<g>
</g>
<g>
</g>
<g>
</g>
<g>
</g>
<g>
</g>
<g>
</g>
<g>
</g>
<g>
</g>
<g>
</g>
<g>
</g>
<g>
</g>
<g>
</g>
</svg>
