<?xml version="1.0" encoding="iso-8859-1"?>
<!-- Generator: Adobe Illustrator 18.0.0, SVG Export Plug-In . SVG Version: 6.00 Build 0)  -->
<!DOCTYPE svg PUBLIC "-//W3C//DTD SVG 1.1//EN" "http://www.w3.org/Graphics/SVG/1.1/DTD/svg11.dtd">
<svg version="1.1" id="Capa_1" xmlns="http://www.w3.org/2000/svg" xmlns:xlink="http://www.w3.org/1999/xlink" x="0px" y="0px"
	 viewBox="0 0 210.871 210.871" style="enable-background:new 0 0 210.871 210.871;" xml:space="preserve">
<g>
	<path d="M53.31,35.241c6.367-2.915,10.81-9.332,10.81-16.78C64.12,8.282,55.841,0,45.664,0C35.486,0,27.206,8.282,27.206,18.461
		c0,7.452,4.447,13.872,10.819,16.785c-9.263,0.765-16.57,8.532-16.57,17.988v6.777c0,3.452,2.798,6.25,6.25,6.25
		c3.452,0,6.25-2.798,6.25-6.25v-6.777c0-3.068,2.497-5.563,5.566-5.563h12.384c3.071,0,5.569,2.496,5.569,5.563v6.777
		c0,3.452,2.798,6.25,6.25,6.25c3.452,0,6.25-2.798,6.25-6.25v-6.777C69.975,43.747,62.618,35.963,53.31,35.241z M45.664,12.5
		c3.284,0,5.956,2.674,5.956,5.961c0,3.286-2.672,5.96-5.956,5.96c-3.285,0-5.958-2.674-5.958-5.96
		C39.706,15.174,42.379,12.5,45.664,12.5z"/>
	<path d="M53.31,106.922c6.367-2.915,10.81-9.332,10.81-16.78c0-10.179-8.279-18.461-18.456-18.461
		c-10.178,0-18.458,8.282-18.458,18.461c0,7.452,4.447,13.872,10.819,16.785c-9.263,0.765-16.57,8.532-16.57,17.988v6.776
		c0,3.452,2.798,6.25,6.25,6.25c3.452,0,6.25-2.798,6.25-6.25v-6.776c0-3.068,2.497-5.564,5.566-5.564h12.384
		c3.071,0,5.569,2.496,5.569,5.564v6.776c0,3.452,2.798,6.25,6.25,6.25c3.452,0,6.25-2.798,6.25-6.25v-6.776
		C69.975,115.428,62.618,107.643,53.31,106.922z M45.664,84.181c3.284,0,5.956,2.674,5.956,5.961c0,3.286-2.672,5.96-5.956,5.96
		c-3.285,0-5.958-2.674-5.958-5.96C39.706,86.854,42.379,84.181,45.664,84.181z"/>
	<path d="M53.31,178.601c6.367-2.915,10.81-9.331,10.81-16.78c0-10.179-8.279-18.461-18.456-18.461
		c-10.178,0-18.458,8.282-18.458,18.461c0,7.452,4.447,13.872,10.819,16.785c-9.263,0.765-16.57,8.532-16.57,17.988v6.777
		c0,3.452,2.798,6.25,6.25,6.25c3.452,0,6.25-2.798,6.25-6.25v-6.777c0-3.068,2.497-5.563,5.566-5.563h12.384
		c3.071,0,5.569,2.496,5.569,5.563v6.777c0,3.452,2.798,6.25,6.25,6.25c3.452,0,6.25-2.798,6.25-6.25v-6.777
		C69.975,187.107,62.618,179.323,53.31,178.601z M45.664,155.86c3.284,0,5.956,2.674,5.956,5.961c0,3.286-2.672,5.96-5.956,5.96
		c-3.285,0-5.958-2.674-5.958-5.96C39.706,158.534,42.379,155.86,45.664,155.86z"/>
	<path d="M86.725,67.511h75.191c4.143,0,7.5-3.358,7.5-7.5V30.67c0-4.142-3.357-7.5-7.5-7.5H86.725c-4.143,0-7.5,3.358-7.5,7.5
		v29.341C79.225,64.153,82.582,67.511,86.725,67.511z M94.225,38.17h60.191v14.341H94.225V38.17z"/>
	<path d="M181.916,94.85H86.725c-4.143,0-7.5,3.358-7.5,7.5v29.341c0,4.142,3.357,7.5,7.5,7.5h95.191c4.143,0,7.5-3.358,7.5-7.5
		V102.35C189.416,98.207,186.059,94.85,181.916,94.85z M174.416,124.19H94.225V109.85h80.191V124.19z"/>
	<path d="M141.916,166.53H86.725c-4.143,0-7.5,3.358-7.5,7.5v29.341c0,4.142,3.357,7.5,7.5,7.5h55.191c4.143,0,7.5-3.358,7.5-7.5
		V174.03C149.416,169.888,146.059,166.53,141.916,166.53z M134.416,195.871H94.225V181.53h40.191V195.871z"/>
</g>
<g>
</g>
<g>
</g>
<g>
</g>
<g>
</g>
<g>
</g>
<g>
</g>
<g>
</g>
<g>
</g>
<g>
</g>
<g>
</g>
<g>
</g>
<g>
</g>
<g>
</g>
<g>
</g>
<g>
</g>
</svg>
