<?xml version="1.0" encoding="iso-8859-1"?>
<!-- Generator: Adobe Illustrator 18.0.0, SVG Export Plug-In . SVG Version: 6.00 Build 0)  -->
<!DOCTYPE svg PUBLIC "-//W3C//DTD SVG 1.1//EN" "http://www.w3.org/Graphics/SVG/1.1/DTD/svg11.dtd">
<svg version="1.1" id="Capa_1" xmlns="http://www.w3.org/2000/svg" xmlns:xlink="http://www.w3.org/1999/xlink" x="0px" y="0px"
	 viewBox="0 0 213.275 213.275" style="enable-background:new 0 0 213.275 213.275;" xml:space="preserve">
<g>
	<path d="M178.477,98.375h-17.49V87.254c0-14.504-11.801-26.305-26.307-26.305h-19.718c-14.505,0-26.306,11.8-26.306,26.305v11.111
		H67.29V77.299l15.606-15.602c2.929-2.929,2.93-7.677,0.002-10.607c-2.929-2.929-7.678-2.93-10.607-0.001L54.487,68.887
		c-1.407,1.407-2.197,3.315-2.197,5.304v24.184H34.799c-4.142,0-7.5,3.358-7.5,7.5s3.358,7.5,7.5,7.5H52.29v92.4
		c0,4.142,3.358,7.5,7.5,7.5h93.696c4.143,0,7.5-3.358,7.5-7.5v-92.4h17.49c4.143,0,7.5-3.358,7.5-7.5
		S182.619,98.375,178.477,98.375z M103.656,87.254c0-6.233,5.071-11.305,11.306-11.305h19.718c6.234,0,11.307,5.071,11.307,11.305
		v11.111h-42.33V87.254z M67.29,198.275v-84.9h78.696v84.9H67.29z"/>
	<path d="M124.742,53.867c14.851,0,26.932-12.082,26.932-26.932C151.674,12.083,139.593,0,124.742,0
		c-14.85,0-26.931,12.083-26.931,26.936C97.811,41.786,109.893,53.867,124.742,53.867z M124.742,15
		c6.579,0,11.932,5.354,11.932,11.936c0,6.579-5.352,11.932-11.932,11.932c-6.578,0-11.931-5.352-11.931-11.932
		C112.811,20.354,118.164,15,124.742,15z"/>
</g>
<g>
</g>
<g>
</g>
<g>
</g>
<g>
</g>
<g>
</g>
<g>
</g>
<g>
</g>
<g>
</g>
<g>
</g>
<g>
</g>
<g>
</g>
<g>
</g>
<g>
</g>
<g>
</g>
<g>
</g>
</svg>
