<?xml version="1.0" encoding="iso-8859-1"?>
<!-- Generator: Adobe Illustrator 18.0.0, SVG Export Plug-In . SVG Version: 6.00 Build 0)  -->
<!DOCTYPE svg PUBLIC "-//W3C//DTD SVG 1.1//EN" "http://www.w3.org/Graphics/SVG/1.1/DTD/svg11.dtd">
<svg version="1.1" id="Capa_1" xmlns="http://www.w3.org/2000/svg" xmlns:xlink="http://www.w3.org/1999/xlink" x="0px" y="0px"
	 viewBox="0 0 216.845 216.845" style="enable-background:new 0 0 216.845 216.845;" xml:space="preserve">
<g>
	<path d="M209.345,112.623h-89.223c-1.989,0-3.897,0.79-5.303,2.197l-63.089,63.09c-2.929,2.929-2.929,7.678,0,10.607
		c18.268,18.268,42.557,28.329,68.392,28.329c53.333,0,96.723-43.389,96.723-96.722C216.845,115.98,213.487,112.623,209.345,112.623
		z M120.122,201.845c-19.31,0-37.596-6.652-52.244-18.871l55.35-55.352h78.275C197.706,169.183,162.657,201.845,120.122,201.845z"/>
	<path d="M104.223,108.422V19.2c0-4.142-3.358-7.5-7.5-7.5C43.39,11.7,0,55.089,0,108.422c0,25.836,10.061,50.126,28.33,68.394
		c1.464,1.464,3.384,2.197,5.303,2.197c1.919,0,3.839-0.732,5.303-2.197l63.09-63.09
		C103.433,112.319,104.223,110.412,104.223,108.422z M89.223,105.316l-55.352,55.352C21.652,146.02,15,127.732,15,108.422
		c0-42.535,32.662-77.583,74.223-81.381V105.316z"/>
	<path d="M120.122,104.223h89.223c4.142,0,7.5-3.358,7.5-7.5C216.845,43.39,173.455,0,120.122,0c-4.142,0-7.5,3.358-7.5,7.5v89.223
		C112.622,100.865,115.98,104.223,120.122,104.223z M127.622,15.341c39.091,3.572,70.309,34.79,73.881,73.881h-73.881V15.341z"/>
</g>
<g>
</g>
<g>
</g>
<g>
</g>
<g>
</g>
<g>
</g>
<g>
</g>
<g>
</g>
<g>
</g>
<g>
</g>
<g>
</g>
<g>
</g>
<g>
</g>
<g>
</g>
<g>
</g>
<g>
</g>
</svg>
