<?xml version="1.0" encoding="iso-8859-1"?>
<!-- Generator: Adobe Illustrator 18.0.0, SVG Export Plug-In . SVG Version: 6.00 Build 0)  -->
<!DOCTYPE svg PUBLIC "-//W3C//DTD SVG 1.1//EN" "http://www.w3.org/Graphics/SVG/1.1/DTD/svg11.dtd">
<svg version="1.1" id="Capa_1" xmlns="http://www.w3.org/2000/svg" xmlns:xlink="http://www.w3.org/1999/xlink" x="0px" y="0px"
	 viewBox="0 0 230.359 230.359" style="enable-background:new 0 0 230.359 230.359;" xml:space="preserve">
<g>
	<path d="M210.322,45.357h-77.028l30.116-30.106c2.929-2.928,2.93-7.677,0.001-10.607c-2.927-2.929-7.676-2.93-10.606-0.001
		l-37.62,37.608L77.554,4.619c-2.929-2.929-7.678-2.93-10.606-0.001c-2.93,2.929-2.93,7.678-0.001,10.606l30.132,30.133H20.024
		C8.982,45.357,0,54.34,0,65.381V207.9c0,11.049,8.982,20.037,20.024,20.037h190.299c11.049,0,20.037-8.988,20.037-20.037V65.381
		C230.359,54.34,221.371,45.357,210.322,45.357z M96.02,182.404v-6.292c0-5.512,4.483-9.995,9.994-9.995h18.334
		c5.51,0,9.992,4.483,9.992,9.995v6.292H96.02z M124.348,151.117h-18.334c-13.782,0-24.994,11.213-24.994,24.995v6.292H15V90.883
		h200.359v91.521h-66.02v-6.292C149.34,162.33,138.128,151.117,124.348,151.117z M20.024,60.357h190.299
		c2.777,0,5.037,2.254,5.037,5.024v10.502H15V65.381C15,62.611,17.254,60.357,20.024,60.357z M210.322,212.937H20.024
		c-2.77,0-5.024-2.26-5.024-5.037v-10.496h200.359V207.9C215.359,210.678,213.1,212.937,210.322,212.937z"/>
	<path d="M115.107,97.433c-14.101,0-25.572,11.473-25.572,25.574c0,14.101,11.472,25.572,25.572,25.572
		c14.1,0,25.57-11.472,25.57-25.572C140.678,108.906,129.207,97.433,115.107,97.433z M115.107,133.58
		c-5.829,0-10.572-4.743-10.572-10.572c0-5.831,4.743-10.574,10.572-10.574c5.828,0,10.57,4.743,10.57,10.574
		C125.678,128.837,120.936,133.58,115.107,133.58z"/>
</g>
<g>
</g>
<g>
</g>
<g>
</g>
<g>
</g>
<g>
</g>
<g>
</g>
<g>
</g>
<g>
</g>
<g>
</g>
<g>
</g>
<g>
</g>
<g>
</g>
<g>
</g>
<g>
</g>
<g>
</g>
</svg>
